<svg width="58" height="58" viewBox="0 0 58 58" fill="none" xmlns="http://www.w3.org/2000/svg">
<path d="M49.381 0.899902H8.94384C4.37836 0.899902 0.899902 4.37837 0.899902 8.94385V49.381C0.899902 53.9464 4.37836 57.4249 8.94384 57.4249H49.381C53.9464 57.4249 57.4249 53.9464 57.4249 49.381V8.94385C57.4249 4.37837 53.9464 0.899902 49.381 0.899902ZM29.1624 46.1199C38.5108 46.1199 46.1199 38.7282 46.1199 29.8146C46.1199 28.2928 45.9025 26.5536 45.4677 25.2491H50.2506V48.2939C50.2506 49.381 49.381 50.468 48.0765 50.468H10.2483C9.16125 50.468 8.07424 49.5984 8.07424 48.2939V25.0317H13.0745C12.6397 26.5536 12.4223 28.0754 12.4223 29.5972C12.2049 38.7282 19.814 46.1199 29.1624 46.1199ZM29.1624 39.5978C23.0751 39.5978 18.2922 34.8149 18.2922 28.945C18.2922 23.0751 23.0751 18.2922 29.1624 18.2922C35.2497 18.2922 40.0326 23.0751 40.0326 28.945C40.0326 35.0323 35.2497 39.5978 29.1624 39.5978ZM50.0332 16.3356C50.0332 17.64 48.9462 18.727 47.6417 18.727H41.5544C40.25 18.727 39.163 17.64 39.163 16.3356V10.4657C39.163 9.16125 40.25 8.07423 41.5544 8.07423H47.6417C48.9462 8.07423 50.0332 9.16125 50.0332 10.4657V16.3356Z" fill="white"/>
</svg>
