<svg width="70" height="41" viewBox="0 0 70 41" fill="none" xmlns="http://www.w3.org/2000/svg">
<path d="M69.1049 36.5081C69.1049 36.2321 68.8289 36.2321 68.8289 35.9561C67.7247 33.7476 65.2402 30.9871 61.9276 27.9506C60.2713 26.5703 59.4431 25.4661 58.891 24.914C58.0629 23.8098 58.0629 22.9817 58.339 21.8775C58.615 21.0493 59.7192 19.669 61.6515 17.1846C62.7557 15.8043 63.3078 14.9762 64.136 14.148C68.2767 8.627 70.2091 5.0383 69.657 3.382L69.381 3.10597C69.105 2.82992 68.8288 2.55388 68.2767 2.55388C67.7246 2.27783 66.8965 2.27783 66.0684 2.55388H55.5785C55.3024 2.55388 55.3024 2.55388 54.7502 2.55388C54.4742 2.55388 54.1982 2.55388 54.1982 2.55388H53.9221H53.6461L53.37 2.8299C53.0939 3.10595 53.0939 3.10595 53.0939 3.382C51.9897 6.41856 50.6095 8.90302 49.2292 11.6635C48.4011 13.0438 47.5729 14.4241 46.7448 15.5283C45.9166 16.6325 45.3645 17.4606 44.8124 18.0127C44.2603 18.5648 43.7082 18.8409 43.4321 19.393C43.1561 19.669 42.604 19.9451 42.604 19.669C42.328 19.669 42.0519 19.669 42.0519 19.393C41.7758 19.1169 41.4998 18.8409 41.2238 18.5648C40.9477 18.2888 40.9477 17.7367 40.6716 17.1846C40.6716 16.6325 40.6716 16.0804 40.6716 15.8043C40.6716 15.5283 40.6716 14.7001 40.6716 14.148C40.6716 13.3199 40.6716 12.7677 40.6716 12.4917C40.6716 11.6635 40.6716 10.5594 40.6716 9.45516C40.6716 8.35095 40.6716 7.52277 40.6716 6.97067C40.6716 6.41857 40.6716 5.59042 40.6716 5.03832C40.6716 4.21017 40.6716 3.65805 40.6716 3.382C40.6716 3.10595 40.3956 2.55386 40.3956 2.27781C40.1196 2.00176 39.8435 1.7257 39.5674 1.44965C39.2914 1.1736 38.7393 1.1736 38.4632 0.897553C37.083 0.621502 35.4267 0.345459 33.4944 0.345459C29.0775 0.345459 26.041 0.621519 24.9367 1.17362C24.3846 1.44967 23.8325 1.72571 23.5565 2.27781C23.0044 2.82991 23.0044 3.10597 23.2804 3.10597C24.6607 3.38202 25.7649 3.9341 26.317 4.76225L26.5931 5.31439C26.8691 5.59044 26.8691 6.14252 27.1451 6.97067C27.4212 7.79883 27.4212 8.62698 27.4212 9.73118C27.4212 11.3875 27.4212 13.0438 27.4212 14.148C27.4212 15.5283 27.1451 16.3564 27.1451 17.1846C27.1451 18.0127 26.8691 18.5648 26.5931 18.8409C26.317 19.393 26.317 19.669 26.0409 19.669C26.0409 19.669 26.0409 19.9451 25.7649 19.9451C25.4888 19.9451 25.2128 20.2211 24.6607 20.2211C24.3846 20.2211 23.8325 19.9451 23.5565 19.669C23.0044 19.393 22.4523 18.8409 22.1762 18.2888C21.6241 17.7367 21.072 16.9085 20.5199 15.8043C19.9678 14.7001 19.1396 13.5959 18.5875 11.9396L18.0355 10.8354C17.7594 10.2833 17.2073 9.17909 16.6552 7.79883C16.1031 6.41858 15.551 5.31439 14.9989 3.93413C14.7228 3.38203 14.4468 3.10595 14.1708 2.8299H13.8947C13.8947 2.8299 13.6186 2.55388 13.3426 2.55388C13.0665 2.55388 12.7905 2.27781 12.5144 2.27781H2.57658C1.47238 2.27781 0.920283 2.55385 0.644232 2.8299L0.368164 3.10597C0.368164 3.10597 0.368164 3.38201 0.368164 3.65807C0.368164 3.93412 0.368181 4.21015 0.644232 4.76225C2.02449 8.07487 3.68079 11.3875 5.33709 14.7001C6.9934 17.7367 8.64973 20.4972 9.75393 22.4296C11.1342 24.3619 12.2384 26.2943 13.6186 27.9506C14.9989 29.6069 15.827 30.7111 16.1031 31.2632C16.6552 31.8153 16.9312 32.0913 17.2073 32.3674L18.0355 33.1955C18.5876 33.7476 19.4157 34.5758 20.5199 35.404C21.6241 36.2321 23.0044 37.0602 24.3846 37.8884C25.7649 38.7166 27.4212 39.2687 29.0775 39.8208C31.0099 40.3729 32.6662 40.6489 34.3225 40.3729H38.4632C39.2914 40.3729 39.8435 40.0968 40.3956 39.5447L40.6716 39.2687C40.6716 38.9926 40.9477 38.9926 40.9477 38.7166C40.9477 38.4405 40.9477 38.1645 40.9477 37.6124C40.9477 36.5082 40.9477 35.68 41.2238 34.8519C41.4998 34.0237 41.4998 33.4716 41.7759 32.9195C42.0519 32.3674 42.328 32.0913 42.604 31.8153C42.8801 31.5392 43.1561 31.2632 43.1561 31.2632H43.4321C43.9842 30.9871 44.8124 31.2632 45.3645 31.8153C46.1927 32.3674 47.0208 33.1955 47.5729 34.0237C48.125 34.8519 48.9532 35.68 50.0574 36.7842C51.1616 37.8884 51.9898 38.7166 52.5419 38.9926L53.37 39.5447C53.9221 39.8208 54.4742 40.0968 55.3024 40.3729C56.1305 40.6489 56.6826 40.6489 57.2347 40.6489L66.6205 40.3729C67.4487 40.3729 68.2768 40.0968 68.8289 39.8208C69.381 39.5447 69.657 39.2687 69.657 38.7166C69.657 38.4405 69.657 37.8884 69.657 37.6124C69.1049 37.0603 69.1049 36.7842 69.1049 36.5081Z" fill="white"/>
</svg>
